<?xml version="1.0" standalone="no"?>
<!DOCTYPE svg PUBLIC "-//W3C//DTD SVG 20010904//EN"
 "http://www.w3.org/TR/2001/REC-SVG-20010904/DTD/svg10.dtd">
<svg version="1.0" xmlns="http://www.w3.org/2000/svg"
 width="300.000000pt" height="69.000000pt" viewBox="0 0 300.000000 69.000000"
 preserveAspectRatio="xMidYMid meet">
<metadata>
Created by potrace 1.10, written by Peter Selinger 2001-2011
</metadata>
<g transform="translate(0.000000,69.000000) scale(0.100000,-0.100000)"
fill="#000000" stroke="none">
<path d="M2890 435 l0 -215 23 0 22 0 -3 215 c-3 206 -4 215 -22 215 -19 0
-20 -8 -20 -215z"/>
<path d="M105 600 c-18 -20 -17 -20 103 -20 67 0 125 0 130 0 4 -1 8 8 10 20
3 19 -1 20 -111 20 -101 0 -116 -2 -132 -20z"/>
<path d="M1690 565 c0 -48 2 -55 20 -55 18 0 20 7 20 55 0 48 -2 55 -20 55
-18 0 -20 -7 -20 -55z"/>
<path d="M1878 590 c-4 -26 -1 -30 19 -30 19 0 23 5 23 30 0 23 -5 30 -19 30
-13 0 -20 -9 -23 -30z"/>
<path d="M80 512 c0 -32 5 -63 12 -70 9 -9 9 -15 0 -24 -7 -7 -12 -42 -12 -88
0 -63 3 -78 20 -93 20 -17 20 -16 20 78 l0 95 90 0 c83 0 90 1 90 20 0 19 -7
20 -90 20 l-90 0 0 60 c0 53 -2 60 -20 60 -18 0 -20 -7 -20 -58z"/>
<path d="M412 492 c83 -113 92 -122 106 -108 12 12 9 21 -23 63 -35 46 -55 61
-83 62 -11 1 -11 -2 0 -17z"/>
<path d="M635 500 c-12 -4 -41 -34 -65 -66 -24 -33 -72 -94 -107 -137 l-64
-77 30 0 c19 0 34 8 44 23 8 13 56 75 106 140 50 64 91 119 91 122 0 7 -11 6
-35 -5z"/>
<path d="M1614 501 c-2 -2 -4 -12 -4 -21 0 -16 13 -18 105 -18 101 0 105 1
105 21 0 21 -4 22 -101 22 -55 0 -103 -2 -105 -4z"/>
<path d="M1880 505 c0 0 -2 -64 -3 -143 -2 -141 -2 -142 21 -142 22 0 22 1 22
144 0 139 -1 145 -20 143 -11 -1 -20 -1 -20 -2z"/>
<path d="M747 482 c-13 -15 -17 -39 -17 -116 0 -83 3 -102 20 -123 l20 -26 0
122 0 121 95 0 c52 0 95 3 95 6 0 21 -42 33 -116 34 -66 0 -84 -3 -97 -18z"/>
<path d="M1041 474 c-17 -21 -20 -40 -19 -117 0 -126 11 -137 123 -137 70 0
85 3 101 21 l18 20 -97 -3 -97 -3 -1 45 c-1 25 -2 71 -3 102 l-1 58 73 0 c65
0 72 2 72 20 0 18 -7 20 -74 20 -68 0 -76 -2 -95 -26z"/>
<path d="M1220 442 c0 -55 2 -62 20 -62 17 0 20 7 20 43 0 31 -6 49 -20 62
-20 18 -20 17 -20 -43z"/>
<path d="M1320 275 c0 -218 1 -225 20 -225 19 0 20 7 20 225 0 218 -1 225 -20
225 -19 0 -20 -7 -20 -225z"/>
<path d="M1370 480 c0 -18 7 -20 75 -20 l75 0 0 -115 c0 -113 0 -115 20 -103
18 11 20 24 20 114 0 92 -2 102 -23 122 -19 18 -35 22 -95 22 -65 0 -72 -2
-72 -20z"/>
<path d="M2007 482 c-14 -15 -17 -40 -17 -124 0 -92 2 -107 20 -123 20 -18 20
-17 20 103 l0 120 75 4 75 3 0 -97 c0 -98 0 -98 25 -98 25 0 25 0 25 93 0 85
-2 96 -23 115 -20 19 -35 22 -104 22 -65 0 -83 -3 -96 -18z"/>
<path d="M2280 360 l0 -140 26 0 25 0 -2 140 c-3 139 -3 140 -26 140 -23 0
-23 0 -23 -140z"/>
<path d="M2352 488 c-22 -22 -12 -28 53 -28 58 0 65 2 65 20 0 17 -7 20 -53
20 -29 0 -58 -5 -65 -12z"/>
<path d="M2480 362 c0 -135 1 -142 20 -142 19 0 20 7 20 123 0 111 -2 126 -20
142 -20 18 -20 17 -20 -123z"/>
<path d="M2595 480 c-18 -20 -17 -20 71 -20 55 0 95 5 102 12 8 8 10 -15 7
-95 l-4 -107 25 0 c24 0 24 1 24 93 0 85 -2 96 -23 115 -20 19 -35 22 -104 22
-67 0 -83 -3 -98 -20z"/>
<path d="M1690 354 c0 -120 9 -134 83 -134 40 0 47 3 47 20 0 18 -7 20 -62 21
-35 1 -55 3 -45 6 15 4 17 17 17 97 0 85 -1 92 -20 92 -19 0 -20 -7 -20 -102z"/>
<path d="M2597 382 c-25 -28 -23 -123 3 -147 20 -18 20 -17 20 48 0 54 -3 66
-17 70 -10 3 24 5 75 6 85 1 92 3 92 21 0 18 -7 20 -78 20 -64 0 -82 -4 -95
-18z"/>
<path d="M1080 350 c0 -18 7 -20 66 -20 51 0 72 5 91 20 l26 20 -92 0 c-84 0
-91 -1 -91 -20z"/>
<path d="M552 337 c-17 -20 61 -117 94 -117 25 0 24 1 -21 60 -53 69 -59 74
-73 57z"/>
<path d="M130 240 c0 -19 7 -20 110 -20 103 0 110 1 110 20 0 19 -7 20 -110
20 -103 0 -110 -1 -110 -20z"/>
<path d="M780 240 c0 -18 7 -20 73 -20 56 0 78 5 97 20 l25 20 -97 0 c-91 0
-98 -1 -98 -20z"/>
<path d="M1370 240 c0 -18 7 -20 70 -20 63 0 70 2 70 20 0 18 -7 20 -70 20
-63 0 -70 -2 -70 -20z"/>
<path d="M2040 240 c0 -18 7 -20 73 -20 61 0 77 3 92 20 18 20 17 20 -73 20
-85 0 -92 -1 -92 -20z"/>
<path d="M2630 240 c0 -18 7 -20 73 -20 61 0 77 3 92 20 18 20 17 20 -73 20
-85 0 -92 -1 -92 -20z"/>
</g>
</svg>
